<svg width="826" height="354" viewBox="0 0 826 354" fill="none" xmlns="http://www.w3.org/2000/svg">
<path d="M80.2302 226.313C80.2302 254.758 77.7009 278.869 111.593 298.173L141.945 312.645V341.089H163.697H185.449C185.449 341.089 183.635 312.146 195.27 312.645H255.258L258.799 326.867V341.089H298.256V312.645C350.359 312.645 361.488 293.522 361.488 236.633C361.488 179.745 333.369 149.204 287.336 149.204H236.505H202.858L195.27 149.403C173.329 149.403 163.697 157.388 163.697 157.388L141.945 131C141.945 131 131.618 159.445 129.804 165.932C127.99 172.418 99.6167 189.086 93.3825 197.37C87.1483 205.654 80.4459 213.925 80.2302 226.313Z" fill="#F4C542" stroke="#3A2A1F" stroke-width="20" stroke-linecap="round" stroke-linejoin="round"/>
<path d="M80.6934 270.727C89.9128 270.727 97.3867 259.556 97.3867 245.775C97.3867 231.995 89.9128 220.824 80.6934 220.824C71.4739 220.824 64 231.995 64 245.775C64 259.556 71.4739 270.727 80.6934 270.727Z" fill="#F4C542" stroke="#3A2A1F" stroke-width="20" stroke-linecap="round" stroke-linejoin="round"/>
<path d="M126.727 219.826C131.197 219.826 134.82 216.251 134.82 211.842C134.82 207.432 131.197 203.857 126.727 203.857C122.257 203.857 118.633 207.432 118.633 211.842C118.633 216.251 122.257 219.826 126.727 219.826Z" fill="#3A2A1F"/>
<path d="M156.066 219.826C160.536 219.826 164.16 216.251 164.16 211.842C164.16 207.432 160.536 203.857 156.066 203.857C151.596 203.857 147.973 207.432 147.973 211.842C147.973 216.251 151.596 219.826 156.066 219.826Z" fill="#3A2A1F"/>
<path d="M495.939 269.758V302.043C495.939 322.221 506.273 338.363 528.314 338.363H557.654V306.079C557.654 285.901 557.654 269.758 517.98 269.758L495.939 269.758Z" fill="#E67E22" stroke="#3A2A1F" stroke-width="20" stroke-linecap="round" stroke-linejoin="round"/>
<path d="M615.539 269.498V301.783C615.539 321.961 625.873 338.103 647.914 338.103H677.254V305.818C677.254 285.64 677.254 269.498 637.58 269.498L615.539 269.498Z" fill="#E67E22" stroke="#3A2A1F" stroke-width="20" stroke-linecap="round" stroke-linejoin="round"/>
<path d="M701.535 52.9219H491.098C464.277 52.9219 442.535 74.3702 442.535 100.828V244.547C442.535 271.005 464.277 292.453 491.098 292.453H701.535C728.355 292.453 750.098 271.005 750.098 244.547V100.828C750.098 74.3702 728.355 52.9219 701.535 52.9219Z" fill="#E67E22" stroke="#3A2A1F" stroke-width="20" stroke-linecap="round" stroke-linejoin="round"/>
<path d="M442.535 92.8438H750.098V60.9062C750.098 34.957 727.84 13 701.535 13H491.098C464.793 13 442.535 34.957 442.535 60.9062V92.8438Z" fill="#8E5B3A" stroke="#3A2A1F" stroke-width="20" stroke-linecap="round" stroke-linejoin="round"/>
<path d="M742.004 140.75H709.629C698.454 140.75 689.395 149.687 689.395 160.711V196.641C689.395 207.665 698.454 216.602 709.629 216.602H742.004C753.179 216.602 762.238 207.665 762.238 196.641V160.711C762.238 149.687 753.179 140.75 742.004 140.75Z" fill="#8E5B3A" stroke="#3A2A1F" stroke-width="20" stroke-linecap="round" stroke-linejoin="round"/>
<path d="M721.77 192.648C729.592 192.648 735.934 186.393 735.934 178.676C735.934 170.959 729.592 164.703 721.77 164.703C713.947 164.703 707.605 170.959 707.605 178.676C707.605 186.393 713.947 192.648 721.77 192.648Z" fill="#F4C542" stroke="#3A2A1F" stroke-width="20" stroke-linecap="round" stroke-linejoin="round"/>
<path d="M519.426 178.676C529.483 178.676 537.637 170.633 537.637 160.711C537.637 150.789 529.483 142.746 519.426 142.746C509.368 142.746 501.215 150.789 501.215 160.711C501.215 170.633 509.368 178.676 519.426 178.676Z" fill="#3A2A1F"/>
<path d="M588.223 178.676C598.28 178.676 606.434 170.633 606.434 160.711C606.434 150.789 598.28 142.746 588.223 142.746C578.165 142.746 570.012 150.789 570.012 160.711C570.012 170.633 578.165 178.676 588.223 178.676Z" fill="#3A2A1F"/>
<path d="M499.191 208.617C528.868 232.57 561.243 232.57 596.316 208.617" stroke="#3A2A1F" stroke-width="16" stroke-linecap="round"/>
<path d="M362.609 125.779C369.614 141.341 378.019 154.31 389.225 162.091C403.234 172.465 417.242 169.872 435.453 159.497" stroke="#3A2A1F" stroke-width="20" stroke-linecap="round" stroke-linejoin="round"/>
<path d="M354.516 125.779C379.101 125.779 399.031 106.118 399.031 81.8652C399.031 57.6122 379.101 37.9512 354.516 37.9512C329.93 37.9512 310 57.6122 310 81.8652C310 106.118 329.93 125.779 354.516 125.779Z" fill="#F4C542" stroke="#3A2A1F" stroke-width="20" stroke-linecap="round" stroke-linejoin="round"/>
<path d="M354.516 75.877L354.516 123.783Z" fill="black"/>
<path d="M354.516 75.877L354.516 123.783" stroke="#3A2A1F" stroke-width="16" stroke-linecap="round"/>
<path d="M332.258 54.918L354.964 77.6838Z" fill="black"/>
<path d="M332.258 54.918L354.964 77.6838" stroke="#3A2A1F" stroke-width="16" stroke-linecap="round"/>
<path d="M377.222 54.918L354.516 77.6838Z" fill="black"/>
<path d="M377.222 54.918L354.516 77.6838" stroke="#3A2A1F" stroke-width="16" stroke-linecap="round"/>
<path d="M326.188 75.877H382.844Z" fill="black"/>
<path d="M326.188 75.877H382.844" stroke="#3A2A1F" stroke-width="16" stroke-linecap="round"/>
<path d="M326.188 95.8379H382.844Z" fill="black"/>
<path d="M326.188 95.8379H382.844" stroke="#3A2A1F" stroke-width="16" stroke-linecap="round"/>
</svg>
